# Blender v3.3.0 OBJ File: ''
# www.blender.org
mtllib sphere.mtl
o Sphere
v -0.000000 -0.707107 -0.707107
v -0.000000 -0.382683 -0.923880
v 0.146447 -0.353553 -0.923880
v 0.270598 -0.653281 -0.707107
v 0.000000 -0.382683 0.923880
v 0.000000 -0.707107 0.707107
v 0.270598 -0.653281 0.707107
v 0.146447 -0.353553 0.923880
v 0.000000 -0.923880 0.382683
v 0.000000 -1.000000 -0.000000
v 0.382683 -0.923880 -0.000000
v 0.353553 -0.853553 0.382683
v 0.000000 -0.923880 -0.382683
v 0.353553 -0.853553 -0.382683
v -0.000000 0.000000 -1.000000
v 0.000000 -0.000000 1.000000
v 0.707107 -0.707107 -0.000000
v 0.653282 -0.653281 0.382683
v 0.500000 -0.500000 -0.707107
v 0.653282 -0.653281 -0.382683
v 0.270598 -0.270598 -0.923880
v 0.270598 -0.270598 0.923880
v 0.500000 -0.500000 0.707107
v 0.353553 -0.146447 0.923880
v 0.853553 -0.353553 0.382683
v 0.653281 -0.270598 0.707107
v 0.853553 -0.353553 -0.382683
v 0.923880 -0.382683 -0.000000
v 0.353553 -0.146447 -0.923880
v 0.653281 -0.270598 -0.707107
v 0.923880 0.000000 -0.382683
v 1.000000 0.000000 -0.000000
v 0.382683 0.000000 -0.923880
v 0.707107 0.000000 -0.707107
v 0.707107 -0.000000 0.707107
v 0.382683 -0.000000 0.923880
v 0.923880 -0.000000 0.382683
v 0.653281 0.270598 0.707107
v 0.353553 0.146447 0.923880
v 0.923879 0.382684 0.000000
v 0.853553 0.353554 0.382683
v 0.653281 0.270598 -0.707107
v 0.853553 0.353554 -0.382683
v 0.353553 0.146447 -0.923880
v 0.500000 0.500000 -0.707107
v 0.653281 0.653282 -0.382683
v 0.270598 0.270598 -0.923880
v 0.270598 0.270598 0.923880
v 0.653281 0.653282 0.382683
v 0.500000 0.500000 0.707107
v 0.707107 0.707107 0.000000
v 0.146447 0.353553 0.923880
v 0.353553 0.853553 0.382683
v 0.270598 0.653281 0.707107
v 0.353553 0.853553 -0.382683
v 0.382683 0.923880 0.000000
v 0.146447 0.353553 -0.923880
v 0.270598 0.653281 -0.707107
v -0.000000 0.382683 -0.923880
v -0.000000 0.707107 -0.707107
v 0.000000 0.707107 0.707107
v 0.000000 0.382683 0.923880
v -0.000000 1.000000 0.000000
v -0.000000 0.923879 0.382683
v -0.000000 0.923879 -0.382683
v -0.270598 0.653281 0.707107
v -0.146447 0.353553 0.923880
v -0.382684 0.923879 0.000000
v -0.353554 0.853553 0.382683
v -0.270598 0.653281 -0.707107
v -0.353554 0.853553 -0.382683
v -0.146447 0.353553 -0.923880
v -0.270598 0.270598 -0.923880
v -0.270598 0.270598 0.923880
v -0.653282 0.653281 0.382683
v -0.500000 0.500000 0.707107
v -0.653282 0.653281 -0.382683
v -0.707107 0.707106 0.000000
v -0.500000 0.500000 -0.707107
v -0.853553 0.353553 0.382683
v -0.653281 0.270598 0.707107
v -0.853553 0.353553 -0.382683
v -0.923880 0.382683 0.000000
v -0.353553 0.146446 -0.923880
v -0.653281 0.270598 -0.707107
v -0.353553 0.146446 0.923880
v -0.707107 -0.000000 0.707107
v -0.382683 -0.000000 0.923880
v -1.000000 -0.000001 -0.000000
v -0.923879 -0.000000 0.382683
v -0.707107 0.000000 -0.707107
v -0.923879 0.000000 -0.382683
v -0.382683 0.000000 -0.923880
v -0.923879 -0.382684 -0.000000
v -0.853553 -0.353554 0.382683
v -0.653281 -0.270598 -0.707107
v -0.853553 -0.353554 -0.382683
v -0.353553 -0.146447 -0.923880
v -0.353553 -0.146447 0.923880
v -0.653281 -0.270598 0.707107
v -0.270598 -0.270598 0.923880
v -0.653281 -0.653282 0.382683
v -0.500000 -0.500000 0.707107
v -0.653281 -0.653282 -0.382683
v -0.707106 -0.707107 -0.000000
v -0.270598 -0.270598 -0.923880
v -0.500000 -0.500000 -0.707107
v -0.353553 -0.853553 -0.382683
v -0.382683 -0.923880 -0.000000
v -0.146446 -0.353554 -0.923880
v -0.270598 -0.653281 -0.707107
v -0.270598 -0.653281 0.707107
v -0.146446 -0.353554 0.923880
v -0.353553 -0.853553 0.382683
vt 0.750000 0.750000
vt 0.750000 0.875000
vt 0.687500 0.875000
vt 0.687500 0.750000
vt 0.750000 0.125000
vt 0.750000 0.250000
vt 0.687500 0.250000
vt 0.687500 0.125000
vt 0.750000 0.375000
vt 0.750000 0.500000
vt 0.687500 0.500000
vt 0.687500 0.375000
vt 0.750000 0.625000
vt 0.687500 0.625000
vt 0.718750 1.000000
vt 0.718750 0.000000
vt 0.625000 0.500000
vt 0.625000 0.375000
vt 0.625000 0.750000
vt 0.625000 0.625000
vt 0.656250 1.000000
vt 0.625000 0.875000
vt 0.656250 0.000000
vt 0.625000 0.125000
vt 0.625000 0.250000
vt 0.593750 0.000000
vt 0.562500 0.125000
vt 0.562500 0.375000
vt 0.562500 0.250000
vt 0.562500 0.625000
vt 0.562500 0.500000
vt 0.562500 0.875000
vt 0.562500 0.750000
vt 0.593750 1.000000
vt 0.500000 0.625000
vt 0.500000 0.500000
vt 0.500000 0.875000
vt 0.500000 0.750000
vt 0.500000 0.250000
vt 0.500000 0.125000
vt 0.500000 0.375000
vt 0.531250 1.000000
vt 0.531250 0.000000
vt 0.437500 0.250000
vt 0.437500 0.125000
vt 0.437500 0.500000
vt 0.437500 0.375000
vt 0.437500 0.750000
vt 0.437500 0.625000
vt 0.468750 1.000000
vt 0.437500 0.875000
vt 0.468750 0.000000
vt 0.375000 0.750000
vt 0.375000 0.625000
vt 0.406250 1.000000
vt 0.375000 0.875000
vt 0.406250 0.000000
vt 0.375000 0.125000
vt 0.375000 0.375000
vt 0.375000 0.250000
vt 0.375000 0.500000
vt 0.343750 0.000000
vt 0.312500 0.125000
vt 0.312500 0.375000
vt 0.312500 0.250000
vt 0.312500 0.625000
vt 0.312500 0.500000
vt 0.312500 0.875000
vt 0.312500 0.750000
vt 0.343750 1.000000
vt 0.250000 0.875000
vt 0.250000 0.750000
vt 0.250000 0.250000
vt 0.250000 0.125000
vt 0.250000 0.500000
vt 0.250000 0.375000
vt 0.250000 0.625000
vt 0.281250 1.000000
vt 0.281250 0.000000
vt 0.187500 0.250000
vt 0.187500 0.125000
vt 0.187500 0.500000
vt 0.187500 0.375000
vt 0.187500 0.750000
vt 0.187500 0.625000
vt 0.218750 1.000000
vt 0.187500 0.875000
vt 0.218750 0.000000
vt 0.156250 1.000000
vt 0.125000 0.875000
vt 0.156250 0.000000
vt 0.125000 0.125000
vt 0.125000 0.375000
vt 0.125000 0.250000
vt 0.125000 0.625000
vt 0.125000 0.500000
vt 0.125000 0.750000
vt 0.062500 0.375000
vt 0.062500 0.250000
vt 0.062500 0.625000
vt 0.062500 0.500000
vt 0.062500 0.875000
vt 0.062500 0.750000
vt 0.062500 0.125000
vt 0.093750 1.000000
vt 0.093750 0.000000
vt 0.000000 0.250000
vt 0.000000 0.125000
vt 0.000000 0.500000
vt 0.000000 0.375000
vt 0.000000 0.750000
vt 0.000000 0.625000
vt 0.031250 1.000000
vt 0.000000 0.875000
vt 0.031250 0.000000
vt 1.000000 0.375000
vt 1.000000 0.500000
vt 0.937500 0.500000
vt 0.937500 0.375000
vt 1.000000 0.625000
vt 1.000000 0.750000
vt 0.937500 0.750000
vt 0.937500 0.625000
vt 1.000000 0.875000
vt 0.968750 1.000000
vt 0.937500 0.875000
vt 0.968750 0.000000
vt 1.000000 0.125000
vt 0.937500 0.125000
vt 1.000000 0.250000
vt 0.937500 0.250000
vt 0.906250 0.000000
vt 0.875000 0.125000
vt 0.875000 0.375000
vt 0.875000 0.250000
vt 0.875000 0.625000
vt 0.875000 0.500000
vt 0.875000 0.875000
vt 0.875000 0.750000
vt 0.906250 1.000000
vt 0.812500 0.625000
vt 0.812500 0.500000
vt 0.812500 0.875000
vt 0.812500 0.750000
vt 0.812500 0.250000
vt 0.812500 0.125000
vt 0.812500 0.375000
vt 0.843750 1.000000
vt 0.843750 0.000000
vt 0.781250 1.000000
vt 0.781250 0.000000
vn 0.1098 -0.5522 -0.8264
vn 0.1098 -0.5522 0.8264
vn 0.1915 -0.9626 0.1915
vn 0.1632 -0.8203 -0.5481
vn 0.0388 -0.1949 -0.9800
vn 0.0388 -0.1949 0.9800
vn 0.1632 -0.8203 0.5481
vn 0.1915 -0.9626 -0.1915
vn 0.5453 -0.8161 0.1915
vn 0.4647 -0.6954 -0.5481
vn 0.1104 -0.1653 -0.9800
vn 0.1104 -0.1653 0.9800
vn 0.4647 -0.6954 0.5481
vn 0.5453 -0.8161 -0.1915
vn 0.3128 -0.4681 -0.8264
vn 0.3128 -0.4681 0.8264
vn 0.1653 -0.1104 0.9800
vn 0.6954 -0.4647 0.5481
vn 0.8161 -0.5453 -0.1915
vn 0.4681 -0.3128 -0.8264
vn 0.4681 -0.3128 0.8264
vn 0.8161 -0.5453 0.1915
vn 0.6954 -0.4647 -0.5481
vn 0.1653 -0.1104 -0.9800
vn 0.9626 -0.1915 -0.1915
vn 0.5522 -0.1098 -0.8264
vn 0.5522 -0.1098 0.8264
vn 0.9626 -0.1915 0.1915
vn 0.8203 -0.1632 -0.5481
vn 0.1949 -0.0388 -0.9800
vn 0.1949 -0.0388 0.9800
vn 0.8203 -0.1632 0.5481
vn 0.5522 0.1098 0.8264
vn 0.9626 0.1915 0.1915
vn 0.8203 0.1632 -0.5481
vn 0.1949 0.0388 -0.9800
vn 0.1949 0.0388 0.9800
vn 0.8203 0.1632 0.5481
vn 0.9626 0.1915 -0.1915
vn 0.5522 0.1098 -0.8264
vn 0.6954 0.4647 -0.5481
vn 0.1653 0.1104 -0.9800
vn 0.1653 0.1104 0.9800
vn 0.6954 0.4647 0.5481
vn 0.8161 0.5453 -0.1915
vn 0.4681 0.3128 -0.8264
vn 0.4681 0.3128 0.8264
vn 0.8161 0.5453 0.1915
vn 0.1104 0.1653 0.9800
vn 0.4647 0.6954 0.5481
vn 0.5453 0.8161 -0.1915
vn 0.3128 0.4681 -0.8264
vn 0.3128 0.4681 0.8264
vn 0.5453 0.8161 0.1915
vn 0.4647 0.6954 -0.5481
vn 0.1104 0.1653 -0.9800
vn 0.1098 0.5522 -0.8264
vn 0.1098 0.5522 0.8264
vn 0.1915 0.9626 0.1915
vn 0.1632 0.8203 -0.5481
vn 0.0388 0.1949 -0.9800
vn 0.0388 0.1949 0.9800
vn 0.1632 0.8203 0.5481
vn 0.1915 0.9626 -0.1915
vn -0.1098 0.5522 0.8264
vn -0.1915 0.9626 0.1915
vn -0.1632 0.8203 -0.5481
vn -0.0388 0.1949 -0.9800
vn -0.0388 0.1949 0.9800
vn -0.1632 0.8203 0.5481
vn -0.1915 0.9626 -0.1915
vn -0.1098 0.5522 -0.8264
vn -0.1104 0.1653 -0.9800
vn -0.1104 0.1653 0.9800
vn -0.4647 0.6954 0.5481
vn -0.5453 0.8161 -0.1915
vn -0.3128 0.4681 -0.8264
vn -0.3128 0.4681 0.8264
vn -0.5453 0.8161 0.1915
vn -0.4647 0.6954 -0.5481
vn -0.6954 0.4647 0.5481
vn -0.8161 0.5453 -0.1915
vn -0.4681 0.3128 -0.8264
vn -0.4681 0.3128 0.8264
vn -0.8161 0.5453 0.1915
vn -0.6954 0.4647 -0.5481
vn -0.1653 0.1104 -0.9800
vn -0.1653 0.1104 0.9800
vn -0.5522 0.1098 0.8264
vn -0.9626 0.1915 0.1915
vn -0.8203 0.1632 -0.5481
vn -0.1949 0.0388 -0.9800
vn -0.1949 0.0388 0.9800
vn -0.8203 0.1632 0.5481
vn -0.9626 0.1915 -0.1915
vn -0.5522 0.1098 -0.8264
vn -0.9626 -0.1915 0.1915
vn -0.8203 -0.1632 -0.5481
vn -0.1949 -0.0388 -0.9800
vn -0.1949 -0.0388 0.9800
vn -0.8203 -0.1632 0.5481
vn -0.9626 -0.1915 -0.1915
vn -0.5522 -0.1098 -0.8264
vn -0.5522 -0.1098 0.8264
vn -0.1653 -0.1104 0.9800
vn -0.6954 -0.4647 0.5481
vn -0.8161 -0.5453 -0.1915
vn -0.4681 -0.3128 -0.8264
vn -0.4681 -0.3128 0.8264
vn -0.8161 -0.5453 0.1915
vn -0.6954 -0.4647 -0.5481
vn -0.1653 -0.1104 -0.9800
vn -0.5453 -0.8161 -0.1915
vn -0.3128 -0.4681 -0.8264
vn -0.3128 -0.4681 0.8264
vn -0.5453 -0.8161 0.1915
vn -0.4647 -0.6954 -0.5481
vn -0.1104 -0.1653 -0.9800
vn -0.1104 -0.1653 0.9800
vn -0.4647 -0.6954 0.5481
vn -0.1098 -0.5522 0.8264
vn -0.1915 -0.9626 0.1915
vn -0.1632 -0.8203 -0.5481
vn -0.0388 -0.1949 -0.9800
vn -0.0388 -0.1949 0.9800
vn -0.1632 -0.8203 0.5481
vn -0.1915 -0.9626 -0.1915
vn -0.1098 -0.5522 -0.8264
usemtl None
s 1
f 1/1/1 2/2/1 3/3/1 4/4/1
f 5/5/2 6/6/2 7/7/2 8/8/2
f 9/9/3 10/10/3 11/11/3 12/12/3
f 13/13/4 1/1/4 4/4/4 14/14/4
f 2/2/5 15/15/5 3/3/5
f 16/16/6 5/5/6 8/8/6
f 6/6/7 9/9/7 12/12/7 7/7/7
f 10/10/8 13/13/8 14/14/8 11/11/8
f 12/12/9 11/11/9 17/17/9 18/18/9
f 14/14/10 4/4/10 19/19/10 20/20/10
f 3/3/11 15/21/11 21/22/11
f 16/23/12 8/8/12 22/24/12
f 7/7/13 12/12/13 18/18/13 23/25/13
f 11/11/14 14/14/14 20/20/14 17/17/14
f 4/4/15 3/3/15 21/22/15 19/19/15
f 8/8/16 7/7/16 23/25/16 22/24/16
f 16/26/17 22/24/17 24/27/17
f 23/25/18 18/18/18 25/28/18 26/29/18
f 17/17/19 20/20/19 27/30/19 28/31/19
f 19/19/20 21/22/20 29/32/20 30/33/20
f 22/24/21 23/25/21 26/29/21 24/27/21
f 18/18/22 17/17/22 28/31/22 25/28/22
f 20/20/23 19/19/23 30/33/23 27/30/23
f 21/22/24 15/34/24 29/32/24
f 28/31/25 27/30/25 31/35/25 32/36/25
f 30/33/26 29/32/26 33/37/26 34/38/26
f 24/27/27 26/29/27 35/39/27 36/40/27
f 25/28/28 28/31/28 32/36/28 37/41/28
f 27/30/29 30/33/29 34/38/29 31/35/29
f 29/32/30 15/42/30 33/37/30
f 16/43/31 24/27/31 36/40/31
f 26/29/32 25/28/32 37/41/32 35/39/32
f 36/40/33 35/39/33 38/44/33 39/45/33
f 37/41/34 32/36/34 40/46/34 41/47/34
f 31/35/35 34/38/35 42/48/35 43/49/35
f 33/37/36 15/50/36 44/51/36
f 16/52/37 36/40/37 39/45/37
f 35/39/38 37/41/38 41/47/38 38/44/38
f 32/36/39 31/35/39 43/49/39 40/46/39
f 34/38/40 33/37/40 44/51/40 42/48/40
f 43/49/41 42/48/41 45/53/41 46/54/41
f 44/51/42 15/55/42 47/56/42
f 16/57/43 39/45/43 48/58/43
f 38/44/44 41/47/44 49/59/44 50/60/44
f 40/46/45 43/49/45 46/54/45 51/61/45
f 42/48/46 44/51/46 47/56/46 45/53/46
f 39/45/47 38/44/47 50/60/47 48/58/47
f 41/47/48 40/46/48 51/61/48 49/59/48
f 16/62/49 48/58/49 52/63/49
f 50/60/50 49/59/50 53/64/50 54/65/50
f 51/61/51 46/54/51 55/66/51 56/67/51
f 45/53/52 47/56/52 57/68/52 58/69/52
f 48/58/53 50/60/53 54/65/53 52/63/53
f 49/59/54 51/61/54 56/67/54 53/64/54
f 46/54/55 45/53/55 58/69/55 55/66/55
f 47/56/56 15/70/56 57/68/56
f 58/69/57 57/68/57 59/71/57 60/72/57
f 52/63/58 54/65/58 61/73/58 62/74/58
f 53/64/59 56/67/59 63/75/59 64/76/59
f 55/66/60 58/69/60 60/72/60 65/77/60
f 57/68/61 15/78/61 59/71/61
f 16/79/62 52/63/62 62/74/62
f 54/65/63 53/64/63 64/76/63 61/73/63
f 56/67/64 55/66/64 65/77/64 63/75/64
f 62/74/65 61/73/65 66/80/65 67/81/65
f 64/76/66 63/75/66 68/82/66 69/83/66
f 65/77/67 60/72/67 70/84/67 71/85/67
f 59/71/68 15/86/68 72/87/68
f 16/88/69 62/74/69 67/81/69
f 61/73/70 64/76/70 69/83/70 66/80/70
f 63/75/71 65/77/71 71/85/71 68/82/71
f 60/72/72 59/71/72 72/87/72 70/84/72
f 72/87/73 15/89/73 73/90/73
f 16/91/74 67/81/74 74/92/74
f 66/80/75 69/83/75 75/93/75 76/94/75
f 68/82/76 71/85/76 77/95/76 78/96/76
f 70/84/77 72/87/77 73/90/77 79/97/77
f 67/81/78 66/80/78 76/94/78 74/92/78
f 69/83/79 68/82/79 78/96/79 75/93/79
f 71/85/80 70/84/80 79/97/80 77/95/80
f 76/94/81 75/93/81 80/98/81 81/99/81
f 78/96/82 77/95/82 82/100/82 83/101/82
f 79/97/83 73/90/83 84/102/83 85/103/83
f 74/92/84 76/94/84 81/99/84 86/104/84
f 75/93/85 78/96/85 83/101/85 80/98/85
f 77/95/86 79/97/86 85/103/86 82/100/86
f 73/90/87 15/105/87 84/102/87
f 16/106/88 74/92/88 86/104/88
f 86/104/89 81/99/89 87/107/89 88/108/89
f 80/98/90 83/101/90 89/109/90 90/110/90
f 82/100/91 85/103/91 91/111/91 92/112/91
f 84/102/92 15/113/92 93/114/92
f 16/115/93 86/104/93 88/108/93
f 81/99/94 80/98/94 90/110/94 87/107/94
f 83/101/95 82/100/95 92/112/95 89/109/95
f 85/103/96 84/102/96 93/114/96 91/111/96
f 90/116/97 89/117/97 94/118/97 95/119/97
f 92/120/98 91/121/98 96/122/98 97/123/98
f 93/124/99 15/125/99 98/126/99
f 16/127/100 88/128/100 99/129/100
f 87/130/101 90/116/101 95/119/101 100/131/101
f 89/117/102 92/120/102 97/123/102 94/118/102
f 91/121/103 93/124/103 98/126/103 96/122/103
f 88/128/104 87/130/104 100/131/104 99/129/104
f 16/132/105 99/129/105 101/133/105
f 100/131/106 95/119/106 102/134/106 103/135/106
f 94/118/107 97/123/107 104/136/107 105/137/107
f 96/122/108 98/126/108 106/138/108 107/139/108
f 99/129/109 100/131/109 103/135/109 101/133/109
f 95/119/110 94/118/110 105/137/110 102/134/110
f 97/123/111 96/122/111 107/139/111 104/136/111
f 98/126/112 15/140/112 106/138/112
f 105/137/113 104/136/113 108/141/113 109/142/113
f 107/139/114 106/138/114 110/143/114 111/144/114
f 101/133/115 103/135/115 112/145/115 113/146/115
f 102/134/116 105/137/116 109/142/116 114/147/116
f 104/136/117 107/139/117 111/144/117 108/141/117
f 106/138/118 15/148/118 110/143/118
f 16/149/119 101/133/119 113/146/119
f 103/135/120 102/134/120 114/147/120 112/145/120
f 113/146/121 112/145/121 6/6/121 5/5/121
f 114/147/122 109/142/122 10/10/122 9/9/122
f 108/141/123 111/144/123 1/1/123 13/13/123
f 110/143/124 15/150/124 2/2/124
f 16/151/125 113/146/125 5/5/125
f 112/145/126 114/147/126 9/9/126 6/6/126
f 109/142/127 108/141/127 13/13/127 10/10/127
f 111/144/128 110/143/128 2/2/128 1/1/128
